<?xml version="1.0" encoding="UTF-8"?>
<svg xmlns="http://www.w3.org/2000/svg" width="400" height="300" viewBox="0 0 400 300">
  <defs>
    <linearGradient id="bg" x1="0" y1="0" x2="1" y2="1">
      <stop offset="0%" stop-color="#0d47a1"/>
      <stop offset="100%" stop-color="#0b2447"/>
    </linearGradient>
  </defs>
  <rect width="400" height="300" fill="url(#bg)"/>
  <rect width="400" height="108" fill="rgba(0,0,0,0.22)"/>
  <text x="22" y="50" fill="#fff" font-family="Arial,sans-serif" font-size="21" font-weight="bold">VGA Cable</text>
  <text x="22" y="76" fill="rgba(255,255,255,0.8)" font-family="Arial,sans-serif" font-size="14">3 Metre</text>
  <rect y="108" width="400" height="192" fill="#eceff1"/>
  <rect x="55" y="158" width="290" height="14" rx="7" fill="#1976d2"/>
<rect x="35" y="148" width="38" height="34" rx="4" fill="#90a4ae" stroke="#546e7a" stroke-width="2"/>
<rect x="44" y="155" width="20" height="20" rx="2" fill="#263238"/>
<circle cx="50" cy="161" r="2" fill="#cfd8dc"/><circle cx="58" cy="161" r="2" fill="#cfd8dc"/>
<circle cx="50" cy="169" r="2" fill="#cfd8dc"/><circle cx="58" cy="169" r="2" fill="#cfd8dc"/>
<rect x="327" y="148" width="38" height="34" rx="4" fill="#90a4ae" stroke="#546e7a" stroke-width="2"/>
<rect x="336" y="155" width="20" height="20" rx="2" fill="#263238"/>
<text x="200" y="210" text-anchor="middle" fill="#546e7a" font-family="Arial" font-size="13" font-weight="bold">VGA Male to Male</text>
  <rect y="288" width="400" height="12" fill="#ff6b00"/>
  <text x="380" y="298" text-anchor="end" fill="#fff" font-family="Arial" font-size="9" opacity="0.9">Warepro</text>
</svg>